<svg id="レイヤー_1" data-name="レイヤー 1" xmlns="http://www.w3.org/2000/svg" viewBox="0 0 188.75 225.63"><defs><style>.cls-1{fill:#3e3d3d;}.cls-2{fill:none;stroke:#4d4d4d;stroke-miterlimit:10;}</style></defs><path class="cls-1" d="M372.5,436.5,396,449,518.5,224.5l-.5-.5Z" transform="translate(-372.5 -223.37)"/><path class="cls-1" d="M518,230" transform="translate(-372.5 -223.37)"/><line class="cls-2" x1="146" y1="0.13" x2="188.17" y2="155.45"/><path class="cls-1" d="M559.71,370.13l-2.53.9a22.13,22.13,0,0,1,1.51,6.71c.13,2.14.22,4-.73,6-.51,1.07-1.5,3.17-3.72,3.74a5.59,5.59,0,0,1-4.41-1l-.3-2.09q-.54,1.24-.9,1.2c-.44-.06-.67-1.63-.68-4.7a7.23,7.23,0,0,0-.51,3.81,6.12,6.12,0,0,0,.9,2.53,6.27,6.27,0,0,0,1.27,1.42c2.06,1.61,5.06.9,5.45.8a11.26,11.26,0,0,0,3.36-2.62C563.7,380.73,560,370.91,559.71,370.13Z" transform="translate(-372.5 -223.37)"/><circle class="cls-1" cx="67" cy="166.13" r="16.5"/></svg>